<svg width="496" height="111" viewBox="0 0 496 111" fill="none" xmlns="http://www.w3.org/2000/svg">
<g clip-path="url(#clip0_609_11680)">
<path d="M68.8898 0C99.163 0 112.111 18.7156 112.111 40.2351C112.111 60.5465 100.371 82.4535 68.8898 82.4535L27.0818 82.4535C24.8934 82.4535 23.6851 83.4566 23.6851 85.8273L23.6851 110.128H0.182373L0.182373 81.2453C0.182373 66.1087 6.56529 59.931 21.2916 59.931L69.6877 59.931C83.0234 59.931 88.4033 50.7669 88.4033 41.4205C88.4033 32.0741 82.6359 23.5028 69.8929 23.5028L0 23.5028L0 0L68.9126 0L68.8898 0ZM157.703 0V63.5328C157.703 76.4809 164.086 86.6252 185.196 86.6252L237.376 86.6252L237.376 110.128L183.805 110.128C148.152 110.128 134.223 90.6145 134.223 63.7379V0L157.726 0L157.703 0ZM254.291 0L291.927 57.5602L329.951 0L357.83 0L303.667 76.4582V110.105H279.959V76.4582L225.795 0L254.268 0L254.291 0ZM449.243 0C479.516 0 492.464 18.7156 492.464 40.2351C492.464 56.9675 484.508 74.8852 463.992 80.6526L495.245 110.128L466.477 110.128L435.816 82.4535H403.445C401.257 82.4535 400.049 83.4566 400.049 85.8273V110.128L376.546 110.128V81.2453C376.546 66.1087 382.906 59.931 397.655 59.931L450.018 59.931C463.354 59.931 468.733 50.7669 468.733 41.2154C468.733 31.6638 462.966 23.5028 450.018 23.5028L376.341 23.5028V0L449.22 0L449.243 0Z" fill="#F1F2F3"/>
</g>
<defs>
<clipPath id="clip0_609_11680">
<rect width="495.439" height="111" fill="white"/>
</clipPath>
</defs>
</svg>
